<?xml version="1.0" standalone="no"?>
<!DOCTYPE svg PUBLIC "-//W3C//DTD SVG 20010904//EN"
 "http://www.w3.org/TR/2001/REC-SVG-20010904/DTD/svg10.dtd">
<svg version="1.0" xmlns="http://www.w3.org/2000/svg"
 width="1080.000000pt" height="407.000000pt" viewBox="0 0 1080.000000 407.000000"
 preserveAspectRatio="xMidYMid meet">

<g transform="translate(0.000000,407.000000) scale(0.100000,-0.100000)"
fill="#000000" stroke="none">
<path d="M4700 3140 c-312 -21 -876 -152 -1142 -265 -39 -16 -39 -16 107 -43
61 -11 239 -45 396 -75 287 -56 577 -102 585 -94 3 2 -15 9 -38 15 -233 57
-291 73 -341 92 -32 12 -70 32 -85 45 -23 20 -25 25 -15 48 21 45 104 77 303
116 58 11 148 26 200 33 124 16 525 16 665 -1 240 -27 516 -94 775 -188 242
-87 613 -264 593 -283 -19 -19 -465 -42 -928 -47 -787 -9 -1170 23 -1860 157
-442 86 -598 103 -915 103 -260 0 -407 -14 -649 -62 -214 -43 -533 -123 -524
-132 4 -4 47 -19 95 -34 48 -14 90 -30 92 -34 7 -10 -117 -234 -162 -294 -78
-102 -175 -135 -476 -162 -155 -13 -187 -19 -175 -29 19 -16 905 -64 919 -49
4 4 15 39 24 77 33 136 133 303 226 376 51 40 155 84 240 102 44 9 146 12 320
12 239 -1 270 -3 495 -36 132 -20 267 -39 299 -43 87 -10 50 -25 -62 -25 -240
0 -439 -46 -667 -154 l-70 -33 75 -6 c41 -4 192 -12 335 -17 143 -5 285 -12
315 -16 30 -3 107 2 170 10 203 28 555 65 955 101 215 19 408 37 430 40 63 8
489 43 1075 89 566 44 1244 54 1505 23 422 -51 732 -132 957 -249 224 -117
313 -233 313 -408 0 -72 -4 -94 -27 -143 -33 -71 -50 -93 -136 -181 l-67 -69
53 28 c69 37 167 127 208 191 98 154 80 329 -49 470 -197 215 -701 384 -1297
434 -69 6 -273 10 -455 10 l-330 -1 -95 52 c-395 214 -758 365 -1065 443 -259
65 -412 91 -631 106 -163 11 -303 11 -464 0z"/>
<path d="M7965 2321 c10 -10 237 -117 356 -167 31 -13 119 -53 194 -89 129
-61 143 -65 207 -65 51 0 69 3 66 13 -7 20 -254 139 -383 184 -123 43 -248 81
-430 130 -14 4 -17 2 -10 -6z"/>
<path d="M2365 2082 c-12 -8 -27 -85 -105 -536 -28 -163 -47 -293 -42 -298 5
-5 51 -7 103 -6 l94 3 12 60 c16 84 47 247 75 398 15 85 27 127 35 125 7 -2
88 -91 180 -198 92 -108 206 -240 253 -293 l85 -98 110 3 109 3 8 35 c4 19 19
103 33 185 15 83 45 244 66 358 21 115 39 222 39 238 l0 29 -94 0 c-63 0 -97
-4 -103 -12 -5 -7 -22 -85 -36 -173 -52 -303 -70 -395 -82 -395 -11 0 -60 55
-339 380 -87 102 -164 188 -170 192 -6 4 -58 8 -116 8 -58 0 -110 -4 -115 -8z"/>
<path d="M4086 2058 c-14 -18 -108 -137 -208 -264 -325 -410 -413 -525 -416
-540 -3 -11 16 -14 105 -14 123 0 115 -3 192 88 l53 62 234 0 c269 0 254 -7
208 99 l-27 61 -143 0 c-117 0 -144 3 -144 14 0 25 257 349 271 340 10 -6 50
-91 129 -274 72 -167 123 -281 152 -340 l23 -45 118 -3 c64 -1 117 0 117 3 0
4 -321 705 -373 815 -12 24 -15 25 -139 28 l-127 3 -25 -33z"/>
<path d="M4697 2083 c-3 -4 23 -69 58 -143 171 -370 307 -657 321 -677 13 -21
22 -23 108 -23 l94 0 183 228 c101 125 254 313 341 419 87 105 158 194 158
197 0 3 -54 6 -120 6 l-119 0 -138 -177 c-76 -97 -185 -238 -243 -312 -58 -74
-110 -136 -117 -138 -11 -4 -28 27 -89 166 -10 24 -60 137 -110 250 l-91 206
-116 3 c-63 1 -118 -1 -120 -5z"/>
<path d="M6146 2081 c-3 -5 -10 -41 -16 -81 -11 -75 -35 -219 -95 -550 -19
-107 -35 -198 -35 -202 0 -11 208 -10 214 1 3 4 17 73 31 152 14 79 35 196 46
259 30 169 48 266 65 343 8 37 12 72 9 78 -8 12 -212 12 -219 0z"/>
<path d="M6646 2082 c-3 -4 67 -91 155 -193 87 -101 159 -187 159 -191 0 -10
-65 -68 -215 -194 -217 -181 -305 -257 -300 -262 2 -2 61 -3 130 -3 l126 2
122 103 c67 57 153 131 191 164 38 33 74 58 80 55 6 -2 71 -76 145 -164 l135
-159 138 0 c88 0 138 4 138 10 0 6 -83 106 -185 222 -102 117 -184 215 -183
219 3 7 181 159 366 312 45 38 82 73 82 78 0 5 -56 9 -124 9 l-124 0 -113 -98
c-168 -144 -207 -174 -218 -170 -5 1 -58 59 -117 128 -90 106 -112 126 -143
132 -51 10 -239 10 -245 0z"/>
</g>
</svg>
